grf
version=1
nRows=17
nColumns=37
inDegrees=no
endheader
time	ground_force_1_vx	ground_force_1_vy	ground_force_1_vz	ground_force_1_px	ground_force_1_py	ground_force_1_pz	ground_moment_1_mx	ground_moment_1_my	ground_moment_1_mz	ground_force_2_vx	ground_force_2_vy	ground_force_2_vz	ground_force_2_px	ground_force_2_py	ground_force_2_pz	ground_moment_2_mx	ground_moment_2_my	ground_moment_2_mz	ground_force_3_vx	ground_force_3_vy	ground_force_3_vz	ground_force_3_px	ground_force_3_py	ground_force_3_pz	ground_moment_3_mx	ground_moment_3_my	ground_moment_3_mz	ground_force_4_vx	ground_force_4_vy	ground_force_4_vz	ground_force_4_px	ground_force_4_py	ground_force_4_pz	ground_moment_4_mx	ground_moment_4_my	ground_moment_4_mz
      4.77000000	      0.00000000	     -0.00000000	      0.00000000	      0.00000000	      0.00000000	      0.00000000	      0.00000000	      0.00000000	      0.00000000	      7.48566532	    147.84130859	   -767.80529785	   -306.97326952	  -1167.16034313	      0.00000000	      0.00000000	      0.00000000	   3962.14191569	     -8.99910315	   -137.31754987	   -905.97521973	   -317.36302915	   -690.77710695	      0.00000000	      0.00000000	      0.00000000	  -7683.05946594	      0.00000000	     -0.00000000	      0.00000000	      0.00000000	      0.00000000	      0.00000000	      0.00000000	      0.00000000	      0.00000000
      4.78000000	      0.00000000	     -0.00000000	      0.00000000	      0.00000000	      0.00000000	      0.00000000	      0.00000000	      0.00000000	      0.00000000	     -0.68274063	    134.82714844	   -726.36035156	   -305.14426225	  -1166.02290019	      0.00000000	      0.00000000	      0.00000000	   4308.73892004	    -24.22608168	   -129.02399996	   -848.30419922	   -314.95913117	   -690.21558505	      0.00000000	      0.00000000	     -0.00000000	  -7616.96490635	      0.00000000	     -0.00000000	      0.00000000	      0.00000000	      0.00000000	      0.00000000	      0.00000000	      0.00000000	      0.00000000
      4.79000000	      0.00000000	     -0.00000000	      0.00000000	      0.00000000	      0.00000000	      0.00000000	      0.00000000	      0.00000000	      0.00000000	    -18.32367325	    124.13996887	   -667.72265625	   -299.46405817	  -1166.38810205	      0.00000000	      0.00000000	      0.00000000	   3703.47158615	    -27.04906393	   -122.84390785	   -793.17352295	   -312.84972733	   -689.63323029	      0.00000000	      0.00000000	     -0.00000000	  -7157.79873140	      0.00000000	     -0.00000000	      0.00000000	      0.00000000	      0.00000000	      0.00000000	      0.00000000	      0.00000000	      0.00000000
      4.80000000	      0.00000000	     -0.00000000	      0.00000000	      0.00000000	      0.00000000	      0.00000000	      0.00000000	      0.00000000	      0.00000000	    -24.72215462	    115.14383698	   -610.15899658	   -294.89853849	  -1165.44495818	      0.00000000	      0.00000000	      0.00000000	   2735.01257692	    -20.48096730	   -117.43988621	   -747.44512939	   -313.32619378	   -689.11077830	      0.00000000	      0.00000000	     -0.00000000	  -6795.47168879	      0.00000000	     -0.00000000	      0.00000000	      0.00000000	      0.00000000	      0.00000000	      0.00000000	      0.00000000	      0.00000000
      4.81000000	      0.00000000	     -0.00000000	      0.00000000	      0.00000000	      0.00000000	      0.00000000	      0.00000000	      0.00000000	      0.00000000	    -25.25531769	    105.42903900	   -563.90368652	   -291.77345595	  -1165.70573844	      0.00000000	      0.00000000	      0.00000000	   2494.81821820	    -16.13994020	   -108.43559124	   -704.50964355	   -313.05810456	   -688.49331870	      0.00000000	      0.00000000	     -0.00000000	  -6713.18366639	      0.00000000	     -0.00000000	      0.00000000	      0.00000000	      0.00000000	      0.00000000	      0.00000000	      0.00000000	      0.00000000
      4.82000000	      0.00000000	     -0.00000000	      0.00000000	      0.00000000	      0.00000000	      0.00000000	      0.00000000	      0.00000000	      0.00000000	    -24.98564529	     97.13707733	   -526.19836426	   -289.99277273	  -1165.52817914	      0.00000000	      0.00000000	      0.00000000	   2082.99816424	    -16.94029159	   -100.31958623	   -659.84869385	   -312.27032840	   -688.90100320	      0.00000000	      0.00000000	     -0.00000000	  -6565.02270600	      0.00000000	     -0.00000000	      0.00000000	      0.00000000	      0.00000000	      0.00000000	      0.00000000	      0.00000000	      0.00000000
      4.83000000	      0.00000000	     -0.00000000	      0.00000000	      0.00000000	      0.00000000	      0.00000000	      0.00000000	      0.00000000	      0.00000000	    -24.80213547	     89.82087708	   -498.31137085	   -290.05389870	  -1165.75569463	      0.00000000	      0.00000000	      0.00000000	   2134.74939091	    -16.50356732	    -93.87927865	   -624.55963135	   -312.28569509	   -687.42871379	      0.00000000	     -0.00000000	     -0.00000000	  -6171.98756362	      0.00000000	     -0.00000000	      0.00000000	      0.00000000	      0.00000000	      0.00000000	      0.00000000	      0.00000000	      0.00000000
      4.84000000	      0.00000000	     -0.00000000	      0.00000000	      0.00000000	      0.00000000	      0.00000000	      0.00000000	      0.00000000	      0.00000000	    -20.77674103	     83.23384857	   -474.29611206	   -291.08675782	  -1165.17896316	      0.00000000	      0.00000000	      0.00000000	   1815.20132192	    -12.84688956	    -88.04865916	   -592.07196045	   -313.13445752	   -687.16252407	      0.00000000	      0.00000000	     -0.00000000	  -6026.93673134	      0.00000000	     -0.00000000	      0.00000000	      0.00000000	      0.00000000	      0.00000000	      0.00000000	      0.00000000	      0.00000000
      4.85000000	      0.00000000	     -0.00000000	      0.00000000	      0.00000000	      0.00000000	      0.00000000	      0.00000000	      0.00000000	      0.00000000	    -15.15100098	     78.77502441	   -454.52505493	   -294.79054809	  -1164.35472664	      0.00000000	      0.00000000	      0.00000000	   1799.25037260	     -9.03614195	    -82.75587384	   -564.13775635	   -313.94101392	   -686.99134375	      0.00000000	      0.00000000	     -0.00000000	  -5595.41307196	      0.00000000	     -0.00000000	      0.00000000	      0.00000000	      0.00000000	      0.00000000	      0.00000000	      0.00000000	      0.00000000
      4.86000000	      0.00000000	     -0.00000000	      0.00000000	      0.00000000	      0.00000000	      0.00000000	      0.00000000	      0.00000000	      0.00000000	     -9.71969604	     74.77616119	   -434.05255127	   -297.52104312	  -1163.42403048	      0.00000000	      0.00000000	      0.00000000	   1709.89385034	     -6.55866869	    -77.26818027	   -535.58111572	   -314.45087465	   -686.57870216	      0.00000000	      0.00000000	     -0.00000000	  -5370.75224173	      0.00000000	     -0.00000000	      0.00000000	      0.00000000	      0.00000000	      0.00000000	      0.00000000	      0.00000000	      0.00000000
      4.87000000	      0.00000000	     -0.00000000	      0.00000000	      0.00000000	      0.00000000	      0.00000000	      0.00000000	      0.00000000	      0.00000000	     -5.88117504	     71.74057007	   -411.79714966	   -300.16414934	  -1163.86337657	      0.00000000	      0.00000000	      0.00000000	   1455.20904137	     -4.52707964	    -71.62186392	   -509.01306152	   -316.12333492	   -686.61941782	      0.00000000	      0.00000000	     -0.00000000	  -5237.35055652	      0.00000000	     -0.00000000	      0.00000000	      0.00000000	      0.00000000	      0.00000000	      0.00000000	      0.00000000	      0.00000000
      4.88000000	      0.00000000	     -0.00000000	      0.00000000	      0.00000000	      0.00000000	      0.00000000	      0.00000000	      0.00000000	      0.00000000	     -3.02546811	     68.08410645	   -390.96005249	   -302.50540806	  -1163.58681073	      0.00000000	      0.00000000	      0.00000000	   1237.45719853	     -3.54843716	    -65.88664215	   -481.80798340	   -317.41135918	   -686.94610018	      0.00000000	      0.00000000	     -0.00000000	  -4985.15717693	      0.00000000	     -0.00000000	      0.00000000	      0.00000000	      0.00000000	      0.00000000	      0.00000000	      0.00000000	      0.00000000
      4.89000000	      0.00000000	     -0.00000000	      0.00000000	      0.00000000	      0.00000000	      0.00000000	      0.00000000	      0.00000000	      0.00000000	     -0.52794641	     63.54267120	   -370.46163940	   -304.82997725	  -1163.96979699	      0.00000000	      0.00000000	      0.00000000	   1338.28967962	     -2.84132640	    -61.81492208	   -458.75985718	   -317.34109579	   -686.09048078	      0.00000000	      0.00000000	     -0.00000000	  -4866.73335094	      0.00000000	     -0.00000000	      0.00000000	      0.00000000	      0.00000000	      0.00000000	      0.00000000	      0.00000000	      0.00000000
      4.90000000	      0.00000000	     -0.00000000	      0.00000000	      0.00000000	      0.00000000	      0.00000000	      0.00000000	      0.00000000	      0.00000000	      0.53526306	     59.17456818	   -348.20819092	   -306.17363129	  -1163.24186110	      0.00000000	      0.00000000	      0.00000000	   1156.72162037	     -2.30648547	    -57.84949855	   -437.81219482	   -318.50993837	   -686.89425701	      0.00000000	      0.00000000	     -0.00000000	  -4811.13382028	      0.00000000	     -0.00000000	      0.00000000	      0.00000000	      0.00000000	      0.00000000	      0.00000000	      0.00000000	      0.00000000
      4.91000000	      0.00000000	     -0.00000000	      0.00000000	      0.00000000	      0.00000000	      0.00000000	      0.00000000	      0.00000000	      0.00000000	      0.18386103	     54.99237442	   -328.79763794	   -306.67177487	  -1164.58328672	      0.00000000	     -0.00000000	      0.00000000	    943.99908673	     -2.83298072	    -55.54400610	   -422.78631592	   -319.10609914	   -685.17487274	      0.00000000	      0.00000000	      0.00000000	  -4564.07178567	      0.00000000	     -0.00000000	      0.00000000	      0.00000000	      0.00000000	      0.00000000	      0.00000000	      0.00000000	      0.00000000
      4.92000000	      0.00000000	     -0.00000000	      0.00000000	      0.00000000	      0.00000000	      0.00000000	      0.00000000	      0.00000000	      0.00000000	     -0.97413373	     52.48550797	   -313.25439453	   -306.33524071	  -1164.00431926	      0.00000000	      0.00000000	      0.00000000	    718.93265656	     -1.68770074	    -53.07915482	   -412.67132568	   -320.41383369	   -685.61429844	      0.00000000	      0.00000000	     -0.00000000	  -4586.20778916	      0.00000000	     -0.00000000	      0.00000000	      0.00000000	      0.00000000	      0.00000000	      0.00000000	      0.00000000	      0.00000000
      4.93000000	      0.00000000	     -0.00000000	      0.00000000	      0.00000000	      0.00000000	      0.00000000	      0.00000000	      0.00000000	      0.00000000	     -0.89210510	     49.37157822	   -298.43707275	   -306.08343926	  -1163.69055645	      0.00000000	      0.00000000	      0.00000000	    670.39925007	     -0.45174371	    -52.02147671	   -402.54766846	   -320.18400564	   -685.80345768	      0.00000000	      0.00000000	     -0.00000000	  -4544.99394314	      0.00000000	     -0.00000000	      0.00000000	      0.00000000	      0.00000000	      0.00000000	      0.00000000	      0.00000000	      0.00000000
